<?xml version="1.0" encoding="UTF-8"?>
<svg xmlns="http://www.w3.org/2000/svg" version="1.1" width="1024" height="1024" viewBox="0 0 500 500"><rect x="0" y="0" width="500" height="500" fill="#ffffff"/><g transform="scale(16.129)"><g transform="translate(1,1)"><g><g transform="translate(3.5,3.5)"><path fill-rule="evenodd" d="M3.5 0A3.5 3.5 0 0 1 0 3.5A3.5 3.5 0 0 1 -3.5 0A3.5 3.5 0 0 1 0 -3.5A3.5 3.5 0 0 1 3.5 0ZM2.5 0A2.5 2.5 0 0 1 0 2.5A2.5 2.5 0 0 1 -2.5 0A2.5 2.5 0 0 1 0 -2.5A2.5 2.5 0 0 1 2.5 0Z" fill="#000000"/><path fill-rule="evenodd" d="M-1.5 0C-1.5 1.5 -1.5 1.5 0 1.5C1.5 1.5 1.5 1.5 1.5 0C1.5 -1.5 1.5 -1.5 0 -1.5C-1.5 -1.5 -1.5 -1.5 -1.5 0Z" fill="#000000"/></g></g><g><g transform="translate(25.5,3.5)"><g transform="rotate(90)"><path fill-rule="evenodd" d="M3.5 0A3.5 3.5 0 0 1 0 3.5A3.5 3.5 0 0 1 -3.5 0A3.5 3.5 0 0 1 0 -3.5A3.5 3.5 0 0 1 3.5 0ZM2.5 0A2.5 2.5 0 0 1 0 2.5A2.5 2.5 0 0 1 -2.5 0A2.5 2.5 0 0 1 0 -2.5A2.5 2.5 0 0 1 2.5 0Z" fill="#000000"/><path fill-rule="evenodd" d="M-1.5 0C-1.5 1.5 -1.5 1.5 0 1.5C1.5 1.5 1.5 1.5 1.5 0C1.5 -1.5 1.5 -1.5 0 -1.5C-1.5 -1.5 -1.5 -1.5 -1.5 0Z" fill="#000000"/></g></g></g><g><g transform="translate(3.5,25.5)"><g transform="rotate(-90)"><path fill-rule="evenodd" d="M3.5 0A3.5 3.5 0 0 1 0 3.5A3.5 3.5 0 0 1 -3.5 0A3.5 3.5 0 0 1 0 -3.5A3.5 3.5 0 0 1 3.5 0ZM2.5 0A2.5 2.5 0 0 1 0 2.5A2.5 2.5 0 0 1 -2.5 0A2.5 2.5 0 0 1 0 -2.5A2.5 2.5 0 0 1 2.5 0Z" fill="#000000"/><path fill-rule="evenodd" d="M-1.5 0C-1.5 1.5 -1.5 1.5 0 1.5C1.5 1.5 1.5 1.5 1.5 0C1.5 -1.5 1.5 -1.5 0 -1.5C-1.5 -1.5 -1.5 -1.5 -1.5 0Z" fill="#000000"/></g></g></g><path fill-rule="evenodd" d="M15 0L15 2L14 2L14 1L13 1L13 2L14 2L14 5L13 5L13 4L12 4L12 5L11 5L11 6L10 6L10 7L11 7L11 9L10 9L10 10L11 10L11 12L12 12L12 15L13 15L13 16L14 16L14 17L16 17L16 18L15 18L15 19L14 19L14 20L15 20L15 21L11 21L11 20L12 20L12 19L13 19L13 18L11 18L11 17L12 17L12 16L11 16L11 15L10 15L10 14L11 14L11 13L10 13L10 14L9 14L9 11L8 11L8 9L7 9L7 8L2 8L2 10L3 10L3 11L1 11L1 12L0 12L0 13L3 13L3 14L2 14L2 15L4 15L4 16L5 16L5 18L4 18L4 20L5 20L5 19L8 19L8 20L6 20L6 21L8 21L8 22L10 22L10 21L11 21L11 23L12 23L12 25L11 25L11 26L10 26L10 25L9 25L9 24L10 24L10 23L8 23L8 27L9 27L9 28L8 28L8 29L13 29L13 27L12 27L12 25L13 25L13 24L14 24L14 25L16 25L16 24L18 24L18 25L20 25L20 26L21 26L21 27L22 27L22 26L21 26L21 25L23 25L23 27L24 27L24 25L25 25L25 23L26 23L26 25L29 25L29 23L27 23L27 22L28 22L28 20L29 20L29 19L27 19L27 18L26 18L26 17L25 17L25 15L27 15L27 16L29 16L29 14L28 14L28 13L27 13L27 14L26 14L26 13L24 13L24 14L23 14L23 13L22 13L22 12L23 12L23 11L20 11L20 10L15 10L15 9L16 9L16 8L15 8L15 6L16 6L16 7L17 7L17 8L18 8L18 9L19 9L19 8L20 8L20 9L21 9L21 6L20 6L20 7L19 7L19 6L18 6L18 5L16 5L16 3L17 3L17 4L18 4L18 3L20 3L20 4L19 4L19 5L20 5L20 4L21 4L21 2L20 2L20 0L19 0L19 1L17 1L17 0ZM9 1L9 2L8 2L8 8L9 8L9 4L11 4L11 3L12 3L12 1L11 1L11 3L10 3L10 1ZM16 1L16 2L15 2L15 3L16 3L16 2L17 2L17 1ZM12 5L12 6L11 6L11 7L12 7L12 9L13 9L13 11L12 11L12 12L13 12L13 13L14 13L14 14L20 14L20 15L23 15L23 14L22 14L22 13L21 13L21 12L18 12L18 13L17 13L17 11L15 11L15 10L14 10L14 9L15 9L15 8L14 8L14 6L15 6L15 5L14 5L14 6L13 6L13 5ZM12 6L12 7L13 7L13 6ZM17 6L17 7L18 7L18 6ZM0 8L0 9L1 9L1 8ZM22 8L22 9L23 9L23 10L24 10L24 9L25 9L25 11L24 11L24 12L26 12L26 11L27 11L27 10L28 10L28 9L27 9L27 8ZM4 9L4 11L5 11L5 12L8 12L8 11L6 11L6 10L7 10L7 9L6 9L6 10L5 10L5 9ZM26 9L26 10L27 10L27 9ZM28 11L28 12L29 12L29 11ZM15 12L15 13L16 13L16 12ZM6 13L6 14L5 14L5 15L6 15L6 16L7 16L7 15L9 15L9 14L7 14L7 13ZM20 13L20 14L21 14L21 13ZM0 14L0 15L1 15L1 14ZM6 14L6 15L7 15L7 14ZM24 14L24 15L25 15L25 14ZM14 15L14 16L16 16L16 17L17 17L17 18L18 18L18 17L20 17L20 18L19 18L19 19L15 19L15 20L18 20L18 21L16 21L16 23L14 23L14 24L16 24L16 23L17 23L17 22L20 22L20 20L19 20L19 19L23 19L23 18L24 18L24 19L25 19L25 20L27 20L27 19L25 19L25 18L24 18L24 17L23 17L23 18L22 18L22 16L21 16L21 17L20 17L20 16L19 16L19 15ZM0 16L0 21L1 21L1 16ZM2 16L2 18L3 18L3 16ZM8 16L8 17L9 17L9 20L10 20L10 19L11 19L11 18L10 18L10 17L11 17L11 16ZM17 16L17 17L18 17L18 16ZM6 17L6 18L7 18L7 17ZM2 20L2 21L3 21L3 20ZM21 21L21 24L24 24L24 21ZM25 21L25 22L27 22L27 21ZM12 22L12 23L13 23L13 22ZM22 22L22 23L23 23L23 22ZM18 23L18 24L19 24L19 23ZM9 26L9 27L10 27L10 28L12 28L12 27L10 27L10 26ZM14 26L14 29L17 29L17 28L18 28L18 29L20 29L20 27L19 27L19 26L17 26L17 27L16 27L16 26ZM26 26L26 27L25 27L25 28L24 28L24 29L27 29L27 27L28 27L28 28L29 28L29 27L28 27L28 26ZM15 27L15 28L16 28L16 27ZM18 27L18 28L19 28L19 27ZM21 28L21 29L23 29L23 28Z" fill="#000000"/></g></g></svg>
